#!OML:ASF F:\VICON\USERDATA\INSTALL\rory3\rory3.ASF
:FULLY-SPECIFIED
:DEGREES
3656
root 0.419065 18.7608 -2.02413 -361.789 70.368 348.812
lowerback 10.3375 -0.845379 -5.04937
upperback 4.58019 -1.46578 -4.82217
thorax -1.00988 -0.655284 -2.00904
lowerneck -4.71625 7.4076 -3.57429
upperneck 27.4777 11.138 2.42878
head 9.03974 5.29436 2.42897
rclavicle -1.59028e-015 1.90833e-014
rhumerus -17.1199 34.8712 -90.1696
rradius 113.528
rwrist -14.403
rhand -46.4996 5.5036
rfingers 7.12502
rthumb -19.2261 -23.566
lclavicle -1.59028e-015 1.90833e-014
lhumerus -0.964511 -17.8247 90.7429
lradius 30.0599
lwrist -11.5218
lhand -32.4955 13.9601
lfingers 7.12502
lthumb -5.72711 43.8627
rfemur -28.5644 19.9387 9.04669
rtibia 29.3492
rfoot -13.2073 -12.1208
rtoes -15.0384
lfemur -20.996 1.34378 -18.8216
ltibia 31.1855
lfoot -18.4301 12.5101
ltoes 3.76002
3657
root 0.452807 18.7635 -2.01949 -361.704 70.3878 348.767
lowerback 10.2705 -0.783789 -5.06365
upperback 4.6123 -1.37817 -4.68899
thorax -0.936337 -0.615657 -1.87259
lowerneck -4.82943 7.36256 -3.68538
upperneck 27.4177 11.13 2.25806
head 9.04575 5.26166 2.39333
rclavicle -3.4191e-014 1.74931e-014
rhumerus -17.1232 35.1071 -90.0119
rradius 113.257
rwrist -15.1096
rhand -46.6493 4.96665
rfingers 7.12502
rthumb -19.3702 -24.0886
lclavicle -3.4191e-014 1.74931e-014
lhumerus -1.79432 -17.6594 90.5344
lradius 30.72
lwrist -11.335
lhand -33.2752 13.6353
lfingers 7.12502
lthumb -6.47987 43.5161
rfemur -28.7356 20.2879 8.98308
rtibia 28.4156
rfoot -13.0322 -11.9381
rtoes -15.9694
lfemur -21.0019 1.40407 -18.8451
ltibia 31.1466
lfoot -18.5002 12.5515
ltoes 3.46588
3658
root 0.487739 18.7643 -2.01539 -361.654 70.4048 348.591
lowerback 10.122 -0.734418 -5.02369
upperback 4.61088 -1.30006 -4.52606
thorax -0.854627 -0.581636 -1.73484
lowerneck -4.89658 7.35561 -3.83401
upperneck 27.3528 11.1661 2.13954
head 9.03437 5.25234 2.38139
rclavicle 4.45278e-014 3.97569e-014
rhumerus -17.1655 35.2916 -89.9192
rradius 113.17
rwrist -15.9116
rhand -46.5654 4.47699
rfingers 7.12502
rthumb -19.2894 -24.5863
lclavicle 4.45278e-014 3.97569e-014
lhumerus -2.66503 -17.6347 90.3914
lradius 31.4227
lwrist -10.7373
lhand -34.2655 13.7889
lfingers 7.12502
lthumb -7.43588 43.6382
rfemur -29.0033 20.5473 8.93771
rtibia 27.5272
rfoot -12.9188 -11.6036
rtoes -17.1845
lfemur -21.1087 1.47979 -18.8504
ltibia 31.082
lfoot -18.3331 12.8987
ltoes 1.00758
3659
root 0.521353 18.7665 -2.00961 -361.841 70.5131 348.226
lowerback 10.0094 -0.697846 -4.93445
upperback 4.69086 -1.22919 -4.35291
thorax -0.708986 -0.551018 -1.61351
lowerneck -5.05905 7.34592 -4.02467
upperneck 27.2728 11.1713 2.15045
head 9.02402 5.23651 2.42052
rclavicle -1.66979e-014 -3.18055e-014
rhumerus -17.1933 35.254 -89.8489
rradius 113.269
rwrist -16.7633
rhand -45.8033 4.89565
rfingers 7.12502
rthumb -18.5564 -24.2393
lclavicle -1.66979e-014 -3.18055e-014
lhumerus -3.23441 -17.4879 90.3693
lradius 31.9144
lwrist -10.2738
lhand -35.3997 14.853
lfingers 7.12502
lthumb -8.53048 44.6607
rfemur -29.2129 20.7129 8.9695
rtibia 26.7093
rfoot -13.0268 -10.9931
rtoes -17.2374
lfemur -21.1451 1.43661 -18.758
ltibia 30.9824
lfoot -18.3559 13.0696
ltoes 0.139743
3660
root 0.552038 18.77 -2.00081 -361.707 70.686 348.453
lowerback 10.1705 -0.665274 -5.05176
upperback 4.82184 -1.19429 -4.26692
thorax -0.655604 -0.535778 -1.46172
lowerneck -5.22203 7.33405 -4.20574
upperneck 27.1633 11.1495 2.23939
head 8.99891 5.21765 2.48024
rclavicle 3.97569e-014 -2.38542e-014
rhumerus -17.2318 35.3349 -89.7706
rradius 113.499
rwrist -17.469
rhand -45.3121 5.17204
rfingers 7.12502
rthumb -18.084 -24.0073
lclavicle 3.97569e-014 -2.38542e-014
lhumerus -3.47557 -16.701 90.6001
lradius 31.9688
lwrist -10.5466
lhand -35.9603 15.7781
lfingers 7.12502
lthumb -9.0715 45.563
rfemur -29.1411 20.9935 8.8776
rtibia 25.8859
rfoot -13.0714 -10.4193
rtoes -16.5344
lfemur -20.9262 1.50887 -18.8759
ltibia 30.9128
lfoot -18.4612 12.952
ltoes 0.110663
3661
root 0.586412 18.7742 -1.99213 -361.753 70.7862 348.371
lowerback 10.217 -0.640568 -5.07784
upperback 4.83952 -1.16626 -4.15338
thorax -0.660034 -0.524119 -1.33159
lowerneck -5.15281 7.33609 -4.23876
upperneck 26.9866 11.1556 2.1628
head 8.92742 5.21434 2.44918
rclavicle -3.18055e-014 -5.24792e-014
rhumerus -17.4489 35.5293 -89.7852
rradius 113.875
rwrist -18.1822
rhand -45.0025 5.05242
rfingers 7.12502
rthumb -17.7861 -24.1542
lclavicle -3.18055e-014 -5.24792e-014
lhumerus -4.30204 -16.3397 90.5743
lradius 32.6821
lwrist -10.2027
lhand -35.4898 15.0694
lfingers 7.12502
lthumb -8.61742 44.8735
rfemur -29.1873 21.294 8.89683
rtibia 25.0591
rfoot -12.9464 -9.93878
rtoes -17.3253
lfemur -20.8362 1.60086 -18.8884
ltibia 30.8746
lfoot -18.5374 12.9138
ltoes -0.185241
3662
root 0.625957 18.7757 -1.98307 -362.379 70.723 347.424
lowerback 9.9493 -0.577906 -4.74115
upperback 4.78881 -1.04363 -4.00792
thorax -0.574281 -0.465041 -1.38273
lowerneck -5.20079 7.30204 -4.31169
upperneck 27.0297 11.1034 2.24808
head 8.94268 5.19123 2.48922
rclavicle 1.35174e-014 6.36111e-015
rhumerus -17.6982 35.4982 -89.9341
rradius 114.326
rwrist -18.8254
rhand -44.5949 4.75386
rfingers 7.12502
rthumb -17.3938 -24.4879
lclavicle 1.35174e-014 6.36111e-015
lhumerus -5.20289 -16.4379 90.508
lradius 33.6438
lwrist -9.7634
lhand -35.9835 15.0299
lfingers 7.12502
lthumb -9.09388 44.8138
rfemur -29.5288 21.6512 9.13257
rtibia 24.2665
rfoot -12.9249 -9.48071
rtoes -18.6443
lfemur -20.9752 1.66129 -18.5802
ltibia 30.8623
lfoot -18.75 13.0258
ltoes 0.376872
3663
root 0.665006 18.7751 -1.97167 -362.578 70.6977 346.943
lowerback 9.66395 -0.469355 -4.51221
upperback 4.75951 -0.866394 -3.92467
thorax -0.454207 -0.378633 -1.44359
lowerneck -5.40294 7.24966 -4.52555
upperneck 27.259 10.9984 2.62022
head 9.02493 5.15473 2.65841
rclavicle 1.03368e-014 -7.15625e-014
rhumerus -17.8965 35.2301 -89.99
rradius 114.842
rwrist -19.3999
rhand -44.6181 4.6602
rfingers 7.12502
rthumb -17.4162 -24.5796
lclavicle 1.03368e-014 -7.15625e-014
lhumerus -6.07301 -16.9488 90.4867
lradius 34.7946
lwrist -9.26405
lhand -37.3913 16.1342
lfingers 7.12502
lthumb -10.4521 45.8544
rfemur -29.8789 22.0072 9.18923
rtibia 23.5354
rfoot -13.0015 -8.93301
rtoes -18.606
lfemur -21.1042 1.83615 -18.4468
ltibia 30.8463
lfoot -19.0052 13.0191
ltoes 1.10729
3664
root 0.703641 18.7718 -1.9592 -362.341 70.7742 347.041
lowerback 9.43512 -0.374696 -4.52454
upperback 4.79363 -0.72408 -3.86774
thorax -0.293415 -0.311618 -1.39279
lowerneck -5.52648 7.19601 -4.65544
upperneck 27.3511 10.8989 2.84768
head 9.0599 5.11756 2.75721
rclavicle 1.59028e-015 2.22639e-014
rhumerus -17.9245 34.9401 -89.864
rradius 115.399
rwrist -19.9602
rhand -44.6137 4.70203
rfingers 7.12502
rthumb -17.4119 -24.5381
lclavicle 1.59028e-015 2.22639e-014
lhumerus -6.83364 -17.4903 90.4124
lradius 36.0248
lwrist -8.51399
lhand -37.7125 15.8169
lfingers 7.12502
lthumb -10.7619 45.5212
rfemur -30.0657 22.1831 9.16939
rtibia 22.8623
rfoot -13.0377 -8.29804
rtoes -18.9047
lfemur -21.1246 1.96263 -18.5284
ltibia 30.8227
lfoot -19.1876 13.0443
ltoes 1.08029
3665
root 0.740685 18.7722 -1.94774 -361.72 70.9023 347.736
lowerback 9.44639 -0.298578 -4.72722
upperback 4.81824 -0.636624 -3.86037
thorax -0.270927 -0.270781 -1.28033
lowerneck -5.29901 7.10693 -4.57997
upperneck 27.1295 10.7807 2.66718
head 8.96154 5.05989 2.65487
rclavicle -4.21423e-014 1.74931e-014
rhumerus -17.9824 34.6816 -89.7578
rradius 115.987
rwrist -20.5602
rhand -44.3411 4.29077
rfingers 7.12502
rthumb -17.1495 -24.9724
lclavicle -4.21423e-014 1.74931e-014
lhumerus -7.59874 -17.9139 90.3223
lradius 37.2613
lwrist -7.73474
lhand -37.0463 14.5577
lfingers 7.12502
lthumb -10.1193 44.2944
rfemur -30.0567 22.3779 8.99248
rtibia 22.2545
rfoot -13.1475 -7.60211
rtoes -19.2828
lfemur -20.9446 1.9513 -18.8167
ltibia 30.7902
lfoot -19.3646 13.1797
ltoes 0.763008
3666
root 0.776979 18.7715 -1.93389 -361.153 71.0168 348.383
lowerback 9.48803 -0.226405 -4.94518
upperback 4.82251 -0.560097 -3.82837
thorax -0.286247 -0.235711 -1.13262
lowerneck -5.06121 7.01591 -4.55527
upperneck 26.9429 10.6723 2.47983
head 8.87103 5.00107 2.56079
rclavicle -2.3059e-014 -2.06736e-014
rhumerus -17.9883 34.3568 -89.6847
rradius 116.573
rwrist -21.2977
rhand -43.911 3.97391
rfingers 7.12502
rthumb -16.7355 -25.3248
lclavicle -2.3059e-014 -2.06736e-014
lhumerus -8.31025 -18.1431 90.3131
lradius 38.483
lwrist -7.24184
lhand -36.8472 13.9642
lfingers 7.12502
lthumb -9.92723 43.7101
rfemur -30.0429 22.7335 8.7835
rtibia 21.6924
rfoot -13.4154 -6.95708
rtoes -18.8273
lfemur -20.7689 2.13777 -19.0873
ltibia 30.773
lfoot -19.5144 13.0534
ltoes 0.96251
3667
root 0.820167 18.7689 -1.91621 -361.553 71.0878 347.795
lowerback 9.18623 -0.217183 -4.80066
upperback 4.81204 -0.519214 -3.67737
thorax -0.133693 -0.220108 -1.06107
lowerneck -5.13358 7.00318 -4.73317
upperneck 27.1447 10.6721 2.60635
head 8.93691 4.9935 2.64348
rclavicle 1.98785e-014 -7.95139e-015
rhumerus -17.8124 34.0367 -89.5758
rradius 117.082
rwrist -22.0246
rhand -43.2217 3.62971
rfingers 7.12502
rthumb -16.0718 -25.7238
lclavicle 1.98785e-014 -7.95139e-015
lhumerus -8.92868 -18.317 90.2492
lradius 39.7353
lwrist -6.901
lhand -37.2732 14.473
lfingers 7.12502
lthumb -10.3382 44.1989
rfemur -30.2147 23.0395 9.02969
rtibia 21.1956
rfoot -13.5937 -6.44003
rtoes -18.4771
lfemur -20.7802 2.42893 -18.9215
ltibia 30.7589
lfoot -19.5119 12.8785
ltoes 0.800787
